<svg xmlns="http://www.w3.org/2000/svg" xmlns:xlink="http://www.w3.org/1999/xlink" width="500" zoomAndPan="magnify" viewBox="0 0 375 374.999991" height="500" preserveAspectRatio="xMidYMid meet" version="1.0"><defs><clipPath id="55ef936676"><path d="M 121.367188 109.011719 L 271.367188 109.011719 L 271.367188 232 L 121.367188 232 Z M 121.367188 109.011719 " clip-rule="nonzero"/></clipPath><clipPath id="47efd05d53"><path d="M 122 109.011719 L 271 109.011719 L 271 231 L 122 231 Z M 122 109.011719 " clip-rule="nonzero"/></clipPath><clipPath id="3775dfc93a"><path d="M 233 237 L 246 237 L 246 250.761719 L 233 250.761719 Z M 233 237 " clip-rule="nonzero"/></clipPath><clipPath id="485ea00527"><path d="M 233 238 L 246 238 L 246 250.761719 L 233 250.761719 Z M 233 238 " clip-rule="nonzero"/></clipPath></defs><rect x="-37.5" width="450" fill="#ffffff" y="-37.499999" height="449.999989" fill-opacity="1"/><rect x="-37.5" width="450" fill="#ffffff" y="-37.499999" height="449.999989" fill-opacity="1"/><g clip-path="url(#55ef936676)"><path fill="#f9f9f9" d="M 217.515625 213.871094 C 216.847656 214.414062 216.089844 214.746094 215.238281 214.863281 C 214.070312 214.941406 213.664062 214.460938 214.113281 213.378906 C 214.292969 213.03125 214.53125 212.734375 214.824219 212.484375 C 215.101562 212.257812 215.390625 212.050781 215.691406 211.863281 C 215.410156 211.632812 215.15625 211.378906 214.929688 211.09375 C 214.769531 210.804688 214.652344 210.5 214.582031 210.179688 C 214.484375 209.570312 214.175781 209.101562 213.652344 208.773438 C 213.269531 209.238281 213.113281 209.769531 213.1875 210.367188 C 213.21875 210.820312 213.21875 211.269531 213.1875 211.71875 C 213.101562 212.441406 212.753906 212.664062 212.101562 212.414062 C 211.785156 212.28125 211.46875 212.28125 211.152344 212.414062 C 210.875 212.523438 210.585938 212.574219 210.285156 212.570312 C 210.082031 212.558594 209.90625 212.484375 209.761719 212.34375 C 209.613281 212.203125 209.53125 212.03125 209.511719 211.828125 C 209.464844 211.636719 209.496094 211.460938 209.605469 211.300781 C 209.710938 211.136719 209.863281 211.039062 210.054688 211.007812 C 210.464844 210.855469 210.910156 210.78125 211.441406 210.644531 C 211.441406 210.417969 211.507812 210.128906 211.511719 209.847656 C 211.5 208.816406 211.832031 207.914062 212.511719 207.136719 C 212.789062 206.78125 213.023438 206.402344 213.214844 205.992188 C 213.324219 205.808594 213.367188 205.609375 213.34375 205.394531 C 213.214844 204.558594 213.25 203.726562 213.441406 202.902344 C 213.507812 202.386719 213.503906 202.386719 213.171875 201.894531 C 213.0625 201.996094 212.921875 202.070312 212.875 202.191406 C 212.5625 202.839844 212.296875 203.503906 212.074219 204.1875 C 211.941406 204.730469 211.644531 205.164062 211.179688 205.484375 C 210.617188 205.882812 210.125 206.355469 209.707031 206.910156 C 209.273438 207.449219 208.707031 207.859375 208.230469 208.355469 C 207.769531 208.820312 207.34375 209.320312 206.957031 209.847656 C 206.800781 210.136719 206.714844 210.441406 206.695312 210.769531 C 206.597656 211.410156 206.328125 211.742188 205.773438 211.820312 C 205.539062 211.855469 205.324219 211.808594 205.125 211.679688 C 204.925781 211.550781 204.792969 211.371094 204.726562 211.144531 C 204.539062 210.734375 204.429688 210.304688 204.410156 209.851562 C 204.390625 208.707031 204.109375 207.628906 203.570312 206.621094 C 203.03125 205.609375 202.289062 204.78125 201.351562 204.125 C 200.996094 203.898438 200.710938 203.601562 200.503906 203.234375 C 200.296875 202.867188 200.1875 202.472656 200.171875 202.050781 C 200.121094 201.597656 199.992188 201.171875 199.78125 200.769531 C 199.714844 200.539062 199.574219 200.367188 199.359375 200.257812 C 199.148438 200.144531 198.925781 200.125 198.699219 200.195312 C 198.257812 200.289062 197.863281 200.195312 197.515625 199.902344 C 197.324219 199.765625 197.144531 199.617188 196.972656 199.453125 C 196.457031 198.964844 195.933594 198.675781 195.210938 199.105469 C 194.777344 199.332031 194.339844 199.332031 193.90625 199.105469 C 193.46875 198.90625 193.054688 198.667969 192.667969 198.390625 C 192.207031 198.058594 191.796875 197.65625 191.339844 197.304688 C 191.132812 197.125 190.890625 197.019531 190.617188 196.992188 C 189.929688 196.964844 189.246094 197.035156 188.574219 197.191406 C 187.738281 197.460938 186.886719 197.578125 186.007812 197.542969 C 184.441406 197.441406 183.167969 198.085938 181.910156 198.878906 C 180.210938 199.996094 178.347656 200.53125 176.3125 200.472656 C 175.324219 200.46875 174.335938 200.539062 173.359375 200.683594 C 172.527344 200.785156 171.804688 201.117188 171.1875 201.679688 C 170.394531 202.378906 169.511719 202.941406 168.542969 203.367188 C 167.679688 203.8125 166.941406 204.410156 166.324219 205.164062 C 166.027344 205.464844 165.910156 205.828125 165.972656 206.246094 C 166.023438 206.539062 165.976562 206.816406 165.832031 207.074219 C 165.6875 207.335938 165.476562 207.519531 165.203125 207.628906 C 164.753906 207.859375 164.308594 208.113281 163.851562 208.328125 C 163.203125 208.652344 162.53125 208.707031 161.839844 208.496094 C 160.988281 208.300781 160.128906 208.242188 159.257812 208.320312 C 157.289062 208.382812 155.425781 208.96875 153.515625 209.339844 C 152.671875 209.566406 151.914062 209.964844 151.242188 210.527344 C 151.039062 210.707031 150.898438 210.929688 150.828125 211.191406 C 150.734375 211.511719 150.566406 211.785156 150.320312 212.015625 C 150.078125 212.242188 149.792969 212.386719 149.464844 212.457031 C 148.992188 212.566406 148.566406 212.773438 148.183594 213.074219 C 147.804688 213.378906 147.507812 213.75 147.296875 214.1875 C 147.132812 214.550781 146.894531 214.855469 146.578125 215.101562 C 146.265625 215.351562 145.914062 215.511719 145.523438 215.589844 C 145.027344 215.714844 144.523438 215.761719 144.011719 215.738281 C 143.054688 215.679688 142.105469 215.570312 141.164062 215.410156 C 140.726562 215.296875 140.3125 215.128906 139.921875 214.90625 C 139.277344 214.597656 138.640625 214.257812 137.992188 213.953125 C 137.4375 213.621094 136.835938 213.472656 136.191406 213.507812 C 136.019531 213.535156 135.855469 213.503906 135.703125 213.421875 C 135.550781 213.339844 135.4375 213.222656 135.367188 213.0625 C 135.066406 212.476562 134.832031 211.867188 134.667969 211.230469 C 134.515625 210.460938 134.78125 210.144531 135.566406 209.96875 C 135.785156 209.9375 135.988281 209.863281 136.171875 209.738281 C 136.355469 209.613281 136.5 209.457031 136.609375 209.261719 C 136.714844 209.066406 136.773438 208.859375 136.78125 208.636719 C 136.789062 208.417969 136.746094 208.203125 136.652344 208.003906 C 136.230469 206.574219 136.164062 205.128906 136.445312 203.664062 C 136.660156 202.769531 136.5 201.949219 135.960938 201.199219 C 135.78125 200.921875 135.582031 200.660156 135.367188 200.414062 C 134.042969 199.132812 133.398438 197.457031 132.871094 195.785156 C 132.535156 194.703125 132.4375 193.578125 131.789062 192.609375 C 131.667969 192.390625 131.625 192.160156 131.664062 191.914062 C 131.710938 191.578125 131.65625 191.253906 131.507812 190.949219 C 131.355469 190.640625 131.132812 190.402344 130.839844 190.234375 C 130.011719 189.632812 129.46875 188.835938 129.210938 187.847656 C 129.046875 187.394531 128.839844 186.96875 128.582031 186.5625 C 127.882812 185.34375 127.179688 184.128906 126.414062 182.929688 C 126.238281 182.613281 126 182.355469 125.699219 182.160156 C 125.152344 181.816406 124.738281 181.355469 124.460938 180.769531 C 124.339844 180.496094 124.167969 180.253906 123.953125 180.042969 C 123.101562 179.394531 122.589844 178.457031 121.964844 177.625 C 121.757812 177.363281 121.613281 177.074219 121.53125 176.746094 C 121.453125 176.351562 121.78125 176.125 122.15625 176.285156 C 122.320312 176.359375 122.46875 176.457031 122.597656 176.585938 C 122.914062 176.863281 123.175781 177.1875 123.382812 177.554688 C 123.855469 178.765625 124.953125 179.269531 125.972656 179.910156 C 125.777344 179.660156 125.582031 179.414062 125.394531 179.164062 C 125.101562 178.792969 124.785156 178.421875 124.527344 178.027344 C 124.421875 177.90625 124.382812 177.761719 124.402344 177.605469 C 124.425781 177.445312 124.503906 177.320312 124.632812 177.230469 C 124.910156 177.023438 125.175781 177.164062 125.355469 177.367188 C 125.648438 177.664062 125.898438 177.984375 126.195312 178.296875 C 126.515625 178.683594 126.878906 179.023438 127.28125 179.316406 C 127.265625 179.167969 127.230469 179.027344 127.171875 178.890625 C 126.890625 178.402344 126.574219 177.925781 126.28125 177.4375 C 125.53125 176.179688 124.757812 174.925781 124.027344 173.640625 C 123.707031 173.128906 123.453125 172.585938 123.269531 172.011719 C 123.15625 171.515625 123.140625 171.015625 123.226562 170.511719 C 123.328125 169.707031 123.5 168.917969 123.667969 168.125 C 123.796875 167.664062 123.722656 167.238281 123.445312 166.84375 C 123.089844 166.351562 122.984375 165.808594 123.136719 165.21875 C 123.285156 164.546875 123.402344 163.875 123.5625 163.203125 C 123.636719 162.941406 123.742188 162.695312 123.875 162.457031 C 124 162.210938 124.179688 161.992188 124.5 162.050781 C 124.820312 162.113281 124.847656 162.414062 124.875 162.6875 C 124.921875 163.097656 124.976562 163.511719 125.046875 164.085938 C 125.320312 163.777344 125.574219 163.457031 125.816406 163.125 C 126.378906 162.257812 127.089844 161.535156 127.949219 160.957031 C 128.601562 160.523438 129.164062 159.992188 129.632812 159.363281 C 130.546875 158.09375 131.578125 156.925781 132.726562 155.863281 C 133.007812 155.542969 133.355469 155.320312 133.761719 155.191406 C 134.171875 155.066406 134.582031 155.050781 134.996094 155.152344 C 135.234375 155.230469 135.480469 155.261719 135.726562 155.253906 C 135.976562 155.246094 136.21875 155.191406 136.449219 155.097656 C 136.679688 155.003906 136.890625 154.875 137.074219 154.707031 C 137.261719 154.542969 137.410156 154.347656 137.53125 154.128906 C 137.761719 153.808594 138.03125 153.527344 138.34375 153.285156 C 138.738281 152.898438 139.207031 152.75 139.753906 152.84375 C 139.976562 152.859375 140.199219 152.859375 140.421875 152.84375 L 141.054688 151.917969 C 141.375 151.472656 141.8125 151.246094 142.363281 151.246094 C 143.289062 151.253906 144.210938 151.179688 145.128906 151.023438 C 146.289062 150.738281 147.410156 150.339844 148.488281 149.828125 C 149.117188 149.464844 149.671875 149.011719 150.160156 148.472656 C 150.378906 148.226562 150.539062 147.949219 150.648438 147.636719 C 151.039062 146.699219 151.378906 145.742188 151.78125 144.808594 C 152.207031 143.992188 152.8125 143.339844 153.597656 142.855469 C 153.710938 142.796875 153.8125 142.71875 153.894531 142.621094 C 153.976562 142.519531 154.039062 142.410156 154.074219 142.285156 C 154.113281 142.164062 154.125 142.039062 154.109375 141.910156 C 154.09375 141.78125 154.058594 141.660156 153.992188 141.546875 C 153.855469 141.351562 153.691406 141.1875 153.496094 141.050781 C 152.847656 140.507812 152.789062 140.101562 153.328125 139.464844 C 153.847656 138.871094 154.210938 138.1875 154.410156 137.421875 C 154.675781 136.378906 155.410156 135.589844 156.039062 134.710938 C 156.121094 134.59375 156.234375 134.519531 156.375 134.480469 C 156.515625 134.445312 156.648438 134.460938 156.78125 134.519531 C 157.078125 135.503906 157.214844 136.628906 158.113281 137.335938 C 158.515625 137.648438 158.710938 138.273438 159.417969 138.269531 C 159.539062 137.839844 159.640625 137.410156 159.714844 136.972656 C 159.742188 136.730469 159.6875 136.507812 159.546875 136.308594 C 159.152344 135.824219 158.730469 135.363281 158.28125 134.925781 C 158.007812 134.65625 157.609375 134.445312 157.789062 133.972656 C 157.96875 133.5 158.40625 133.550781 158.796875 133.523438 C 159.363281 133.507812 159.859375 133.691406 160.285156 134.066406 C 160.425781 134.199219 160.589844 134.304688 160.773438 134.371094 C 160.957031 134.441406 161.148438 134.46875 161.34375 134.460938 C 161.539062 134.453125 161.726562 134.402344 161.902344 134.320312 C 162.078125 134.234375 162.230469 134.117188 162.359375 133.96875 C 162.542969 133.796875 162.664062 133.59375 162.71875 133.351562 C 162.777344 133.109375 162.761719 132.871094 162.675781 132.640625 C 162.492188 132.132812 162.269531 131.648438 162.007812 131.179688 C 161.835938 130.898438 161.679688 130.609375 161.542969 130.3125 C 161.496094 130.214844 161.46875 130.113281 161.472656 130.003906 C 161.472656 129.894531 161.496094 129.792969 161.542969 129.695312 C 161.59375 129.601562 161.660156 129.519531 161.746094 129.453125 C 161.832031 129.390625 161.929688 129.347656 162.035156 129.324219 C 162.382812 129.226562 162.730469 129.152344 163.085938 129.097656 C 163.507812 129.054688 163.8125 128.847656 164.007812 128.472656 C 164.167969 128.226562 164.371094 128.019531 164.621094 127.863281 C 164.972656 127.636719 165.152344 127.3125 165.164062 126.894531 C 165.164062 126.507812 165.164062 126.109375 165.53125 125.84375 C 166 125.519531 166.515625 125.367188 167.082031 125.390625 C 167.304688 125.410156 167.523438 125.449219 167.738281 125.503906 C 167.875 125.253906 168 125.027344 168.121094 124.792969 C 168.660156 123.707031 168.933594 123.589844 170.097656 123.832031 C 170.148438 123.832031 170.203125 123.800781 170.304688 123.765625 C 170.300781 123.660156 170.289062 123.554688 170.265625 123.453125 C 170.171875 123.253906 170.152344 123.046875 170.210938 122.835938 C 170.273438 122.625 170.390625 122.457031 170.574219 122.335938 C 170.785156 122.171875 171.023438 122.089844 171.289062 122.089844 C 171.554688 122.089844 171.792969 122.171875 172.003906 122.335938 C 172.746094 122.878906 173.472656 123.464844 174.210938 124.03125 C 174.945312 124.601562 175.707031 125.117188 176.40625 125.734375 C 176.730469 126.082031 177.019531 126.457031 177.269531 126.863281 C 177.339844 126.960938 177.390625 127.0625 177.480469 127.210938 C 177.675781 127.210938 177.878906 127.210938 178.082031 127.179688 C 178.738281 127.019531 179.386719 127.046875 180.027344 127.257812 C 180.109375 127.296875 180.199219 127.316406 180.289062 127.3125 C 181.058594 127.253906 181.828125 127.183594 182.640625 127.113281 C 182.511719 126.5 182.511719 125.882812 182.640625 125.269531 C 182.679688 124.519531 182.632812 123.777344 182.5 123.039062 C 182.410156 122.042969 182.578125 121.710938 183.476562 121.257812 C 183.769531 121.109375 184.085938 121 184.371094 120.839844 C 184.953125 120.496094 184.972656 120.167969 184.457031 119.753906 C 184.335938 119.667969 184.214844 119.578125 184.101562 119.476562 C 184.023438 119.414062 183.964844 119.335938 183.925781 119.242188 C 183.886719 119.152344 183.875 119.054688 183.886719 118.953125 C 183.898438 118.855469 183.929688 118.765625 183.988281 118.683594 C 184.046875 118.601562 184.117188 118.535156 184.207031 118.492188 C 184.703125 118.191406 185.078125 117.777344 185.324219 117.253906 C 185.621094 116.886719 185.984375 116.601562 186.410156 116.398438 C 186.449219 116.355469 186.511719 116.304688 186.519531 116.257812 C 186.558594 115.507812 187.011719 115.171875 187.675781 114.964844 C 188.359375 114.664062 189.058594 114.632812 189.773438 114.863281 C 190.003906 114.914062 190.238281 114.914062 190.472656 114.863281 C 191.15625 114.824219 191.839844 114.769531 192.523438 114.71875 C 192.976562 114.703125 193.425781 114.644531 193.871094 114.542969 C 194.453125 114.375 194.605469 114 194.414062 113.425781 C 194.238281 112.832031 193.859375 112.4375 193.277344 112.238281 C 192.960938 112.132812 192.675781 111.980469 192.414062 111.777344 C 192.171875 111.625 192.0625 111.40625 192.085938 111.121094 C 192.109375 110.835938 192.25 110.636719 192.511719 110.519531 C 192.867188 110.324219 193.25 110.199219 193.65625 110.144531 C 193.957031 110.128906 194.226562 110.21875 194.464844 110.410156 C 195.136719 110.953125 195.75 111.566406 196.414062 112.121094 C 196.613281 112.257812 196.832031 112.324219 197.070312 112.324219 C 197.566406 112.335938 198.003906 112.496094 198.382812 112.808594 C 198.6875 113 199.007812 113.144531 199.355469 113.238281 C 200.027344 113.480469 200.714844 113.6875 201.382812 113.945312 C 201.6875 114.09375 202.003906 114.132812 202.332031 114.054688 C 202.625 113.992188 202.921875 113.953125 203.222656 113.9375 C 203.539062 113.882812 203.851562 113.910156 204.160156 114.015625 C 204.464844 114.125 204.726562 114.300781 204.941406 114.542969 C 205.109375 114.710938 205.289062 114.867188 205.480469 115.003906 C 206.023438 114.875 206.5 114.789062 206.957031 114.652344 C 207.179688 114.582031 207.382812 114.46875 207.558594 114.316406 C 208.578125 113.480469 209.566406 112.609375 210.601562 111.792969 C 210.960938 111.527344 211.363281 111.347656 211.800781 111.25 C 212.308594 111.132812 212.597656 111.542969 212.378906 112.027344 C 212.269531 112.242188 212.132812 112.4375 211.960938 112.609375 C 211.351562 113.332031 210.609375 113.875 209.734375 114.234375 C 209.46875 114.339844 209.210938 114.460938 208.957031 114.597656 L 209.40625 115.683594 C 209.855469 115.554688 210.226562 115.3125 210.519531 114.949219 C 210.722656 114.71875 210.972656 114.566406 211.265625 114.484375 C 211.5625 114.40625 211.855469 114.414062 212.148438 114.511719 C 212.414062 114.535156 212.597656 114.667969 212.703125 114.914062 C 212.808594 115.160156 212.777344 115.386719 212.609375 115.59375 C 212.058594 116.363281 211.710938 117.214844 211.554688 118.144531 C 211.34375 118.996094 210.9375 119.628906 209.976562 119.742188 C 209.726562 119.800781 209.484375 119.878906 209.25 119.980469 C 209.261719 120.140625 209.242188 120.292969 209.195312 120.441406 C 209.148438 120.59375 209.070312 120.726562 208.96875 120.847656 C 208.871094 120.96875 208.75 121.066406 208.609375 121.140625 C 208.472656 121.210938 208.324219 121.257812 208.167969 121.273438 C 208.03125 122.210938 207.863281 123.121094 207.777344 124.03125 C 207.683594 124.996094 207.289062 125.808594 206.589844 126.472656 C 207.109375 126.824219 207.59375 127.222656 208.042969 127.660156 C 208.390625 128.140625 208.683594 128.648438 208.929688 129.183594 C 209.835938 128.640625 210.070312 128.679688 210.605469 129.460938 C 210.785156 129.695312 211.003906 129.875 211.269531 130.003906 C 212.066406 130.46875 212.820312 131.007812 213.589844 131.523438 C 213.882812 131.773438 214.195312 132 214.527344 132.199219 C 214.898438 132.339844 215.214844 132.558594 215.484375 132.847656 C 215.75 133.140625 215.9375 133.476562 216.046875 133.859375 C 216.109375 134.03125 216.195312 134.195312 216.300781 134.347656 C 217.289062 134.613281 218.199219 134.890625 219.125 135.101562 C 219.738281 135.238281 220.226562 135.5625 220.589844 136.070312 C 220.957031 136.582031 221.328125 137.085938 221.675781 137.617188 C 221.898438 137.988281 222.210938 138.25 222.617188 138.402344 C 223.066406 138.570312 223.519531 138.734375 223.957031 138.945312 C 225.195312 139.488281 225.964844 139.25 226.738281 138.136719 C 226.90625 137.894531 227.027344 137.59375 227.214844 137.378906 C 227.46875 137.046875 227.757812 136.75 228.085938 136.488281 C 228.414062 136.265625 228.648438 135.964844 228.785156 135.589844 C 229.363281 134.140625 229.859375 132.664062 230.265625 131.160156 C 230.40625 130.636719 230.625 130.152344 230.921875 129.699219 C 231.097656 129.453125 231.207031 129.175781 231.242188 128.871094 C 231.277344 128.566406 231.238281 128.273438 231.121094 127.992188 C 230.636719 126.90625 230.761719 125.746094 230.832031 124.617188 C 230.9375 124.089844 231.117188 123.585938 231.375 123.109375 C 231.503906 122.78125 231.667969 122.464844 231.816406 122.152344 C 231.738281 122.039062 231.652344 121.933594 231.558594 121.832031 C 231.433594 121.738281 231.328125 121.621094 231.25 121.488281 C 231.167969 121.351562 231.113281 121.207031 231.089844 121.050781 C 231.066406 120.894531 231.070312 120.738281 231.109375 120.585938 C 231.144531 120.429688 231.207031 120.289062 231.300781 120.160156 C 231.402344 120.015625 231.515625 119.875 231.636719 119.742188 C 231.945312 119.421875 232.140625 119.042969 232.222656 118.605469 C 232.304688 118.167969 232.261719 117.742188 232.089844 117.332031 C 232.003906 117.078125 231.960938 116.820312 231.960938 116.558594 C 231.960938 116.292969 232 116.035156 232.082031 115.78125 C 232.167969 115.53125 232.289062 115.296875 232.445312 115.085938 C 232.605469 114.875 232.792969 114.695312 233.011719 114.542969 C 233.410156 114.308594 233.714844 113.988281 233.929688 113.582031 C 234.144531 113.175781 234.238281 112.742188 234.210938 112.28125 C 234.085938 111.367188 234.3125 110.554688 234.894531 109.835938 C 235.230469 109.445312 235.574219 108.996094 236.160156 109.160156 C 236.742188 109.320312 236.890625 109.824219 236.945312 110.355469 C 237.023438 111.351562 237.257812 112.308594 237.644531 113.226562 C 237.746094 113.539062 237.792969 113.859375 237.785156 114.191406 C 237.816406 114.574219 237.824219 114.960938 237.84375 115.351562 C 238.019531 115.433594 238.148438 115.507812 238.285156 115.558594 C 238.871094 115.761719 239.027344 116.101562 238.75 116.640625 C 238.632812 116.816406 238.507812 116.980469 238.371094 117.140625 C 238.285156 117.28125 238.222656 117.445312 238.109375 117.683594 C 238.441406 117.722656 238.695312 117.742188 238.945312 117.785156 C 239.246094 117.792969 239.46875 117.925781 239.613281 118.191406 C 239.757812 118.457031 239.753906 118.714844 239.597656 118.972656 C 239.421875 119.335938 239.230469 119.691406 239.015625 120.03125 C 239.28125 120.164062 239.488281 120.359375 239.636719 120.617188 C 239.785156 120.875 239.847656 121.152344 239.828125 121.445312 C 239.828125 121.917969 239.988281 122.394531 239.980469 122.867188 C 239.980469 124.121094 240.410156 125.28125 240.644531 126.484375 C 240.6875 126.597656 240.746094 126.710938 240.8125 126.816406 C 241.011719 126.683594 241.207031 126.578125 241.351562 126.441406 C 242.199219 125.769531 242.796875 125.800781 243.523438 126.582031 C 243.679688 126.722656 243.816406 126.878906 243.933594 127.054688 C 244.40625 127.878906 245.058594 128.523438 245.886719 128.988281 C 246.429688 129.320312 246.484375 129.601562 246.175781 130.195312 C 245.976562 130.542969 245.910156 130.914062 245.972656 131.308594 C 246.027344 131.691406 245.972656 132.085938 246.007812 132.476562 C 246.019531 132.890625 246.097656 133.292969 246.234375 133.6875 C 246.460938 134.144531 246.460938 134.601562 246.234375 135.058594 C 246.152344 135.273438 246.117188 135.5 246.125 135.730469 C 246.132812 135.960938 246.183594 136.183594 246.277344 136.394531 C 246.371094 136.605469 246.503906 136.789062 246.667969 136.949219 C 246.835938 137.109375 247.027344 137.234375 247.242188 137.320312 C 248.027344 137.605469 248.214844 137.859375 248.023438 138.667969 C 247.867188 139.089844 247.914062 139.488281 248.164062 139.863281 C 248.464844 140.289062 248.523438 140.746094 248.332031 141.234375 C 248.148438 141.769531 248.171875 142.296875 248.402344 142.8125 C 248.734375 143.570312 248.851562 144.363281 248.761719 145.1875 C 248.742188 146.082031 248.992188 146.894531 249.507812 147.621094 C 249.691406 147.917969 249.953125 148.101562 250.296875 148.164062 C 250.863281 148.222656 251.378906 148.421875 251.84375 148.753906 C 252.308594 149.085938 252.664062 149.511719 252.902344 150.03125 C 253.027344 150.082031 253.089844 150.132812 253.136719 150.128906 C 253.574219 150.085938 253.984375 150.160156 254.378906 150.359375 C 254.769531 150.554688 255.078125 150.839844 255.304688 151.210938 C 255.847656 151.863281 256.390625 152.46875 256.988281 153.078125 C 257.320312 153.375 257.480469 153.746094 257.46875 154.195312 C 257.429688 155.136719 257.722656 155.953125 258.359375 156.652344 C 259.011719 157.605469 259.4375 158.652344 259.632812 159.789062 C 259.808594 160.578125 259.984375 161.363281 260.175781 162.21875 C 260.375 162.144531 260.496094 162.089844 260.625 162.046875 C 261.113281 161.878906 261.25 161.925781 261.476562 162.382812 C 261.546875 162.511719 261.585938 162.660156 261.652344 162.792969 C 261.714844 162.929688 261.792969 163.054688 261.863281 163.183594 C 261.953125 163.210938 262.042969 163.222656 262.140625 163.21875 C 263.222656 163.039062 263.933594 163.65625 263.8125 164.773438 C 263.761719 165.277344 263.601562 165.773438 263.511719 166.269531 C 263.449219 166.578125 263.429688 166.898438 263.398438 167.199219 C 263.523438 167.234375 263.546875 167.253906 263.574219 167.246094 C 264.832031 166.996094 264.984375 167.074219 265.300781 168.332031 C 265.464844 169.191406 265.886719 169.894531 266.570312 170.441406 C 266.816406 170.660156 267.035156 170.90625 267.226562 171.171875 C 267.722656 171.769531 268.234375 172.355469 268.707031 172.972656 C 269.011719 173.339844 269.265625 173.742188 269.464844 174.175781 C 269.785156 174.980469 270.007812 175.804688 270.292969 176.644531 C 270.640625 177.703125 270.835938 178.785156 270.875 179.898438 C 270.882812 180.292969 270.816406 180.671875 270.667969 181.035156 C 270.460938 181.710938 270.445312 182.386719 270.625 183.070312 C 270.878906 184.394531 271.089844 185.722656 271.277344 187.054688 C 271.328125 187.503906 271.316406 187.953125 271.234375 188.394531 C 271.085938 189.339844 270.886719 190.277344 270.691406 191.222656 C 270.515625 192.175781 270.167969 193.0625 269.65625 193.882812 C 269.382812 194.316406 269.113281 194.761719 268.890625 195.210938 C 268.460938 195.980469 268.199219 196.800781 268.097656 197.671875 C 268.039062 198.214844 267.972656 198.757812 267.886719 199.300781 C 267.6875 200.765625 267.109375 202.0625 266.152344 203.1875 C 265.683594 203.730469 265.3125 204.355469 264.867188 204.914062 C 264.601562 205.277344 264.289062 205.601562 263.933594 205.878906 C 262.429688 206.949219 261.132812 208.226562 260.046875 209.71875 C 259.101562 211.003906 258.539062 212.566406 257.804688 214 C 257.742188 215.171875 257.0625 216.066406 256.433594 216.96875 C 255.234375 218.789062 254.464844 220.777344 254.128906 222.933594 C 254.015625 223.523438 253.917969 224.113281 253.792969 224.699219 C 253.746094 225.117188 253.585938 225.484375 253.316406 225.800781 C 253.042969 226.121094 252.707031 226.335938 252.308594 226.453125 C 251.042969 226.804688 249.824219 227.324219 248.511719 227.410156 C 247.464844 227.476562 246.421875 227.613281 245.382812 227.710938 C 244.988281 227.753906 244.699219 227.890625 244.644531 228.34375 C 244.617188 228.527344 244.539062 228.6875 244.410156 228.820312 C 244.28125 228.949219 244.125 229.03125 243.941406 229.058594 C 243.367188 229.234375 242.800781 229.433594 242.242188 229.644531 C 241.996094 229.75 241.753906 229.863281 241.515625 229.992188 C 241.546875 230.128906 241.566406 230.210938 241.585938 230.292969 C 241.8125 231 241.585938 231.414062 240.84375 231.414062 C 240.445312 231.414062 240.085938 231.300781 239.757812 231.074219 C 239.152344 230.589844 238.589844 230.058594 238.074219 229.476562 C 237.871094 229.191406 237.597656 229.054688 237.25 229.066406 C 235.761719 229.125 235.203125 228.171875 235.882812 226.816406 C 236.035156 226.523438 236.332031 226.21875 236.066406 225.8125 C 235.71875 225.785156 235.574219 226.019531 235.523438 226.277344 C 235.433594 226.652344 235.25 226.972656 234.96875 227.234375 C 234.691406 227.5 234.363281 227.667969 233.984375 227.738281 C 233.652344 227.875 233.382812 228.089844 233.179688 228.386719 C 232.828125 228.878906 232.351562 229.15625 231.75 229.222656 C 231.308594 229.277344 230.914062 229.167969 230.566406 228.890625 C 230.242188 228.628906 229.890625 228.398438 229.519531 228.203125 C 229.070312 227.941406 228.609375 227.917969 228.136719 228.136719 C 227.839844 228.277344 227.527344 228.375 227.199219 228.429688 C 226.8125 228.535156 226.425781 228.523438 226.042969 228.398438 C 225.660156 228.273438 225.339844 228.054688 225.085938 227.742188 C 224.449219 226.972656 223.6875 226.351562 222.808594 225.878906 C 222.085938 225.449219 221.355469 225.03125 221.019531 224.179688 C 220.933594 224.015625 220.808594 223.894531 220.636719 223.820312 C 219.332031 223.210938 219.148438 221.972656 218.929688 220.757812 C 218.882812 220.488281 218.882812 220.21875 218.929688 219.949219 C 219.160156 218.671875 218.5625 217.660156 217.796875 216.773438 C 217.53125 216.519531 217.347656 216.21875 217.25 215.863281 C 217.152344 215.511719 217.15625 215.15625 217.253906 214.804688 C 217.347656 214.496094 217.457031 214.1875 217.558594 213.875 L 217.527344 213.875 Z M 217.515625 213.871094 " fill-opacity="1" fill-rule="nonzero"/></g><path fill="#f9f9f9" d="M 217.765625 213.046875 L 217.894531 212.964844 L 217.78125 213.0625 L 217.78125 213.238281 Z M 217.765625 213.046875 " fill-opacity="1" fill-rule="nonzero"/><g clip-path="url(#47efd05d53)"><path fill="#f9f9f9" d="M 126.28125 179.261719 C 126.007812 178.628906 125.574219 178.136719 124.980469 177.777344 C 125.296875 178.375 125.714844 178.882812 126.234375 179.3125 C 126.355469 179.515625 126.460938 179.726562 126.554688 179.945312 C 126.636719 180.171875 126.679688 180.40625 126.683594 180.644531 C 126.703125 180.835938 126.628906 180.972656 126.460938 181.058594 C 126.289062 181.144531 126.136719 181.121094 125.996094 180.992188 C 125.859375 180.878906 125.730469 180.753906 125.605469 180.625 C 125.316406 180.320312 125.011719 180.039062 124.683594 179.777344 C 124.074219 179.324219 123.578125 178.769531 123.199219 178.113281 C 123.007812 177.808594 122.816406 177.507812 122.601562 177.226562 C 122.453125 177.097656 122.292969 176.992188 122.113281 176.910156 C 122.179688 177.144531 122.179688 177.234375 122.226562 177.296875 C 123.269531 178.601562 124.308594 179.914062 125.367188 181.210938 C 125.523438 181.390625 125.703125 181.539062 125.910156 181.660156 C 126.402344 181.96875 126.765625 182.394531 126.992188 182.929688 C 127.191406 183.367188 127.417969 183.785156 127.671875 184.191406 C 128.152344 184.984375 128.667969 185.761719 129.144531 186.558594 C 129.359375 186.886719 129.523438 187.234375 129.640625 187.609375 C 129.867188 188.550781 130.375 189.300781 131.167969 189.855469 C 131.492188 190.0625 131.738281 190.339844 131.914062 190.679688 C 132.089844 191.023438 132.167969 191.386719 132.152344 191.769531 C 132.117188 192.105469 132.191406 192.417969 132.367188 192.707031 C 132.914062 193.453125 133.199219 194.289062 133.222656 195.210938 C 133.230469 195.363281 133.261719 195.511719 133.316406 195.652344 C 134.015625 197.164062 134.457031 198.816406 135.714844 200.039062 C 135.953125 200.304688 136.164062 200.59375 136.351562 200.898438 C 136.9375 201.765625 137.121094 202.710938 136.894531 203.730469 C 136.660156 205.140625 136.742188 206.53125 137.140625 207.902344 C 137.234375 208.167969 137.273438 208.441406 137.25 208.722656 C 137.230469 209.003906 137.152344 209.265625 137.015625 209.515625 C 136.878906 209.761719 136.699219 209.96875 136.472656 210.136719 C 136.246094 210.308594 135.996094 210.421875 135.71875 210.480469 C 135.554688 210.53125 135.394531 210.589844 135.230469 210.648438 C 135.046875 211.355469 135.386719 211.914062 135.605469 212.492188 C 135.648438 212.683594 135.75 212.828125 135.914062 212.933594 C 136.074219 213.039062 136.25 213.074219 136.441406 213.035156 C 136.933594 212.992188 137.394531 213.09375 137.824219 213.339844 C 138.707031 213.777344 139.589844 214.21875 140.484375 214.640625 C 140.792969 214.835938 141.125 214.953125 141.488281 214.992188 C 142.296875 215.003906 143.09375 215.089844 143.886719 215.257812 C 144.195312 215.320312 144.507812 215.328125 144.824219 215.285156 C 145.136719 215.238281 145.433594 215.140625 145.714844 214.992188 C 145.996094 214.84375 146.246094 214.652344 146.460938 214.421875 C 146.675781 214.1875 146.847656 213.925781 146.972656 213.632812 C 147.046875 213.46875 147.148438 213.324219 147.28125 213.199219 C 147.84375 212.636719 148.503906 212.238281 149.265625 212.007812 C 149.539062 211.964844 149.773438 211.847656 149.972656 211.65625 C 150.171875 211.464844 150.296875 211.234375 150.347656 210.964844 C 150.429688 210.671875 150.582031 210.421875 150.804688 210.214844 C 151.53125 209.558594 152.367188 209.109375 153.316406 208.867188 C 155.191406 208.503906 157.023438 207.910156 158.964844 207.847656 C 159.925781 207.75 160.878906 207.804688 161.816406 208.019531 C 162.449219 208.210938 163.058594 208.160156 163.644531 207.859375 C 164.050781 207.667969 164.4375 207.433594 164.839844 207.234375 C 165.027344 207.160156 165.167969 207.03125 165.261719 206.855469 C 165.359375 206.675781 165.386719 206.488281 165.34375 206.289062 C 165.277344 205.679688 165.472656 205.164062 165.921875 204.746094 C 166.601562 203.96875 167.402344 203.351562 168.324219 202.894531 C 169.222656 202.496094 170.03125 201.964844 170.761719 201.308594 C 171.332031 200.800781 171.988281 200.460938 172.734375 200.289062 C 173.964844 199.980469 175.214844 199.871094 176.480469 199.96875 C 177.207031 200.019531 177.914062 199.929688 178.605469 199.707031 C 179.148438 199.535156 179.691406 199.375 180.234375 199.191406 C 180.515625 199.089844 180.789062 198.964844 181.046875 198.8125 C 181.589844 198.476562 182.175781 198.132812 182.71875 197.761719 C 183.324219 197.332031 184 197.113281 184.738281 197.105469 C 186.152344 197.078125 187.550781 196.917969 188.933594 196.628906 C 189.304688 196.546875 189.707031 196.566406 190.09375 196.523438 C 190.726562 196.445312 191.28125 196.613281 191.761719 197.035156 C 192.246094 197.441406 192.726562 197.835938 193.230469 198.222656 C 193.488281 198.464844 193.792969 198.621094 194.140625 198.691406 C 194.492188 198.761719 194.832031 198.730469 195.164062 198.601562 C 195.511719 198.4375 195.878906 198.394531 196.257812 198.472656 C 196.636719 198.554688 196.953125 198.742188 197.207031 199.035156 C 197.378906 199.191406 197.574219 199.332031 197.75 199.480469 C 198.019531 199.699219 198.324219 199.777344 198.664062 199.710938 C 198.820312 199.671875 198.976562 199.660156 199.136719 199.675781 C 199.296875 199.695312 199.445312 199.742188 199.585938 199.820312 C 199.726562 199.898438 199.847656 199.996094 199.949219 200.121094 C 200.050781 200.246094 200.125 200.382812 200.171875 200.535156 C 200.410156 201.023438 200.554688 201.539062 200.617188 202.078125 C 200.667969 202.777344 200.984375 203.320312 201.574219 203.703125 C 203.585938 205.332031 204.894531 207.292969 204.859375 209.984375 C 204.808594 210.5625 205.019531 211.027344 205.488281 211.371094 C 205.816406 211.34375 206.03125 211.226562 206.058594 210.890625 C 206.042969 210.617188 206.089844 210.355469 206.191406 210.101562 C 206.675781 209.355469 207.050781 208.53125 207.820312 207.960938 C 208.371094 207.496094 208.894531 207.003906 209.386719 206.480469 C 209.835938 206.046875 210.265625 205.585938 210.738281 205.183594 C 211.140625 204.859375 211.414062 204.445312 211.554688 203.941406 C 211.777344 203.257812 212.050781 202.59375 212.367188 201.953125 C 212.445312 201.785156 212.566406 201.65625 212.730469 201.566406 C 212.890625 201.476562 213.0625 201.445312 213.246094 201.46875 C 213.429688 201.503906 213.582031 201.589844 213.703125 201.730469 C 213.828125 201.871094 213.894531 202.03125 213.902344 202.21875 C 213.929688 202.582031 213.921875 202.941406 213.875 203.300781 C 213.742188 204.023438 213.722656 204.746094 213.816406 205.472656 C 213.84375 205.808594 213.773438 206.121094 213.605469 206.414062 C 213.417969 206.824219 213.179688 207.199219 212.890625 207.542969 C 212.261719 208.28125 211.953125 209.136719 211.96875 210.109375 C 211.96875 210.433594 211.96875 210.757812 211.925781 211.003906 C 211.382812 211.648438 210.460938 211.066406 209.972656 211.757812 C 210.058594 212.183594 210.363281 212.261719 210.699219 212.109375 C 211.285156 211.785156 211.878906 211.765625 212.488281 212.042969 C 212.738281 211.523438 212.808594 210.984375 212.699219 210.417969 C 212.628906 209.867188 212.714844 209.339844 212.953125 208.839844 C 213.324219 208.160156 213.761719 208.074219 214.304688 208.621094 C 214.5625 208.914062 214.777344 209.234375 214.949219 209.582031 C 215.046875 209.800781 215.117188 210.03125 215.160156 210.265625 C 215.300781 210.738281 215.460938 211.148438 216.046875 211.28125 C 216.445312 211.371094 216.535156 211.722656 216.25 212.042969 C 215.945312 212.371094 215.601562 212.65625 215.226562 212.902344 C 214.964844 213.039062 214.773438 213.246094 214.648438 213.511719 C 214.523438 213.78125 214.492188 214.058594 214.554688 214.347656 C 214.945312 214.417969 215.332031 214.398438 215.714844 214.285156 C 216.09375 214.175781 216.433594 213.984375 216.722656 213.714844 C 216.988281 213.390625 217.207031 213.042969 217.378906 212.664062 C 217.660156 212.121094 217.878906 211.984375 218.171875 212.121094 C 218.464844 212.253906 218.617188 212.664062 218.480469 213.144531 C 218.429688 213.320312 218.359375 213.484375 218.273438 213.644531 C 218.210938 213.773438 218.117188 213.894531 218.042969 214.023438 C 217.449219 215.0625 217.582031 215.648438 218.300781 216.597656 C 219.117188 217.519531 219.492188 218.59375 219.433594 219.820312 C 219.386719 220.183594 219.386719 220.542969 219.433594 220.90625 C 219.566406 221.59375 219.542969 222.402344 220.167969 222.863281 C 220.789062 223.324219 221.484375 223.671875 221.792969 224.457031 C 221.828125 224.554688 221.960938 224.621094 222.058594 224.691406 C 222.601562 225.046875 223.078125 225.425781 223.609375 225.773438 C 224.269531 226.152344 224.832031 226.640625 225.296875 227.242188 C 225.5 227.539062 225.769531 227.746094 226.105469 227.867188 C 226.441406 227.988281 226.78125 228.003906 227.125 227.910156 C 227.417969 227.851562 227.703125 227.761719 227.980469 227.652344 C 228.574219 227.394531 229.152344 227.425781 229.714844 227.738281 C 230.082031 227.941406 230.429688 228.171875 230.757812 228.429688 C 230.867188 228.535156 230.992188 228.613281 231.132812 228.671875 C 231.273438 228.726562 231.417969 228.753906 231.570312 228.753906 C 231.722656 228.753906 231.867188 228.726562 232.007812 228.671875 C 232.148438 228.613281 232.273438 228.535156 232.382812 228.429688 C 232.523438 228.320312 232.648438 228.1875 232.753906 228.039062 C 233.039062 227.578125 233.445312 227.300781 233.976562 227.199219 C 234.207031 227.140625 234.398438 227.023438 234.558594 226.855469 C 234.71875 226.683594 234.824219 226.480469 234.867188 226.25 C 234.988281 225.945312 235.160156 225.667969 235.382812 225.425781 C 235.503906 225.300781 235.648438 225.230469 235.820312 225.21875 C 235.992188 225.203125 236.148438 225.246094 236.289062 225.351562 C 236.441406 225.429688 236.554688 225.542969 236.625 225.703125 C 236.699219 225.859375 236.710938 226.019531 236.667969 226.1875 C 236.613281 226.386719 236.542969 226.582031 236.453125 226.773438 C 236.347656 227.023438 236.21875 227.265625 236.136719 227.519531 C 235.957031 228.117188 236.167969 228.429688 236.792969 228.511719 C 236.882812 228.527344 236.972656 228.527344 237.0625 228.511719 C 237.71875 228.394531 238.105469 228.75 238.496094 229.21875 C 238.949219 229.734375 239.449219 230.207031 239.992188 230.628906 C 240.28125 230.859375 240.652344 231.066406 241.035156 230.730469 C 240.800781 229.765625 240.875 229.601562 241.765625 229.207031 C 242.011719 229.097656 242.265625 229.003906 242.523438 228.925781 L 244 228.421875 C 244.003906 228.253906 244.039062 228.09375 244.105469 227.941406 C 244.167969 227.789062 244.261719 227.652344 244.378906 227.535156 C 244.496094 227.417969 244.632812 227.328125 244.785156 227.261719 C 244.9375 227.195312 245.097656 227.160156 245.261719 227.15625 C 246.15625 227.074219 247.046875 226.917969 247.941406 226.902344 C 249.292969 226.902344 250.507812 226.359375 251.785156 226.050781 C 252.203125 225.980469 252.550781 225.789062 252.832031 225.472656 C 253.109375 225.160156 253.261719 224.789062 253.285156 224.371094 C 253.398438 223.386719 253.578125 222.417969 253.824219 221.457031 C 254.269531 219.570312 255.050781 217.832031 256.167969 216.246094 C 256.710938 215.558594 257.253906 214.863281 257.253906 213.921875 C 257.269531 213.800781 257.3125 213.6875 257.378906 213.585938 C 257.996094 212.324219 258.601562 211.058594 259.25 209.789062 C 259.449219 209.457031 259.683594 209.148438 259.953125 208.867188 C 260.25 208.53125 260.550781 208.195312 260.875 207.882812 C 261.699219 207.105469 262.546875 206.339844 263.375 205.5625 C 263.671875 205.3125 263.949219 205.039062 264.203125 204.746094 C 264.710938 204.117188 265.148438 203.433594 265.675781 202.820312 C 266.574219 201.765625 267.113281 200.550781 267.300781 199.175781 C 267.367188 198.738281 267.441406 198.292969 267.484375 197.84375 C 267.582031 196.785156 267.886719 195.789062 268.402344 194.859375 C 268.652344 194.410156 268.90625 193.96875 269.171875 193.535156 C 269.675781 192.707031 270.003906 191.8125 270.160156 190.851562 C 270.277344 190.113281 270.453125 189.382812 270.558594 188.644531 C 270.65625 188.144531 270.691406 187.640625 270.65625 187.132812 C 270.488281 185.796875 270.292969 184.457031 270.023438 183.144531 C 269.828125 182.375 269.851562 181.609375 270.09375 180.851562 C 270.226562 180.515625 270.285156 180.164062 270.277344 179.800781 C 270.234375 178.714844 270.035156 177.660156 269.6875 176.632812 C 269.425781 175.929688 269.183594 175.21875 268.972656 174.503906 C 268.816406 174.007812 268.550781 173.582031 268.179688 173.222656 C 267.691406 172.679688 267.253906 172.136719 266.792969 171.597656 C 266.585938 171.300781 266.351562 171.03125 266.09375 170.78125 C 265.398438 170.210938 264.953125 169.488281 264.757812 168.613281 C 264.675781 168.277344 264.539062 167.953125 264.441406 167.652344 C 264.320312 167.640625 264.195312 167.640625 264.070312 167.652344 C 263.039062 167.925781 262.695312 167.621094 262.839844 166.570312 C 262.859375 166.386719 262.894531 166.207031 262.941406 166.027344 C 263.039062 165.621094 263.175781 165.21875 263.238281 164.804688 C 263.359375 164.007812 262.957031 163.617188 262.191406 163.722656 C 261.652344 163.808594 261.519531 163.753906 261.253906 163.28125 C 261.152344 163.097656 261.074219 162.898438 260.984375 162.742188 C 260.984375 162.695312 260.890625 162.679688 260.84375 162.648438 L 260.25 162.96875 C 259.605469 162.652344 259.546875 162.050781 259.40625 161.515625 C 259.238281 160.878906 259.132812 160.222656 258.972656 159.589844 C 258.773438 158.609375 258.390625 157.703125 257.820312 156.878906 C 257.152344 156.128906 256.835938 155.253906 256.878906 154.25 C 256.894531 153.9375 256.789062 153.675781 256.570312 153.457031 C 255.820312 152.8125 255.160156 152.089844 254.578125 151.289062 C 254.296875 150.878906 253.910156 150.699219 253.417969 150.746094 C 253.171875 150.777344 252.9375 150.734375 252.71875 150.617188 C 252.503906 150.496094 252.339844 150.320312 252.238281 150.09375 C 252.054688 149.742188 251.800781 149.457031 251.476562 149.230469 C 251.148438 149.007812 250.792969 148.871094 250.398438 148.824219 C 250.019531 148.769531 249.679688 148.617188 249.378906 148.378906 C 249.082031 148.136719 248.863281 147.835938 248.726562 147.476562 C 248.324219 146.683594 248.15625 145.84375 248.222656 144.960938 C 248.292969 144.375 248.191406 143.824219 247.914062 143.304688 C 247.515625 142.578125 247.449219 141.824219 247.714844 141.039062 C 247.828125 140.757812 247.828125 140.476562 247.714844 140.191406 C 247.417969 139.707031 247.355469 139.191406 247.535156 138.648438 C 247.675781 138.144531 247.601562 138.105469 247.070312 137.910156 C 246.832031 137.859375 246.625 137.753906 246.441406 137.601562 C 246.234375 137.414062 246.066406 137.199219 245.933594 136.957031 C 245.800781 136.710938 245.714844 136.453125 245.671875 136.175781 C 245.632812 135.902344 245.636719 135.628906 245.691406 135.355469 C 245.746094 135.085938 245.84375 134.828125 245.984375 134.589844 C 246 134.515625 246.015625 134.4375 246.023438 134.359375 C 245.507812 133.710938 245.351562 132.988281 245.546875 132.1875 C 245.574219 131.824219 245.546875 131.460938 245.464844 131.105469 C 245.363281 130.703125 245.429688 130.332031 245.664062 129.992188 C 245.75 129.839844 245.816406 129.679688 245.871094 129.515625 C 244.890625 129.074219 244.144531 128.378906 243.636719 127.433594 C 243.507812 127.230469 243.355469 127.050781 243.175781 126.890625 C 242.671875 126.398438 242.417969 126.382812 241.839844 126.777344 C 241.671875 126.902344 241.519531 127.046875 241.34375 127.160156 C 241.253906 127.238281 241.15625 127.289062 241.042969 127.3125 C 240.929688 127.339844 240.820312 127.339844 240.707031 127.316406 C 240.59375 127.289062 240.496094 127.238281 240.40625 127.164062 C 240.320312 127.085938 240.253906 126.996094 240.210938 126.890625 C 240.113281 126.707031 240.046875 126.511719 240.007812 126.304688 C 239.65625 125 239.453125 123.671875 239.402344 122.320312 C 239.390625 121.988281 239.335938 121.664062 239.242188 121.34375 C 239.195312 121.136719 239.101562 120.957031 238.960938 120.800781 C 238.382812 120.167969 238.367188 120.046875 238.789062 119.335938 C 238.949219 119.070312 239.304688 118.875 239.121094 118.371094 C 238.847656 118.371094 238.527344 118.324219 238.214844 118.273438 C 237.769531 118.210938 237.558594 117.976562 237.640625 117.542969 C 237.726562 117.261719 237.855469 117 238.035156 116.765625 C 238.179688 116.550781 238.335938 116.34375 238.507812 116.148438 C 237.71875 116.078125 237.257812 115.71875 237.285156 115.0625 C 237.289062 114.066406 237.09375 113.109375 236.707031 112.191406 C 236.601562 111.835938 236.53125 111.472656 236.496094 111.105469 C 236.457031 110.777344 236.402344 110.453125 236.332031 110.128906 C 236.246094 109.945312 236.136719 109.78125 236 109.628906 C 235.363281 109.9375 234.988281 110.441406 234.867188 111.136719 C 234.800781 111.640625 234.761719 112.148438 234.75 112.65625 C 234.78125 113.125 234.652344 113.542969 234.363281 113.914062 C 234 114.304688 233.589844 114.644531 233.214844 115.027344 C 233.015625 115.203125 232.855469 115.40625 232.738281 115.644531 C 232.476562 116.21875 232.457031 116.804688 232.683594 117.394531 C 232.835938 117.8125 232.871094 118.242188 232.785156 118.679688 C 232.703125 119.117188 232.511719 119.5 232.210938 119.832031 C 232.125 119.949219 232 120.042969 231.902344 120.160156 C 231.808594 120.238281 231.742188 120.335938 231.691406 120.445312 C 231.644531 120.554688 231.621094 120.671875 231.625 120.792969 C 231.628906 120.914062 231.660156 121.027344 231.714844 121.132812 C 231.773438 121.242188 231.847656 121.332031 231.945312 121.402344 C 232.128906 121.570312 232.242188 121.777344 232.28125 122.023438 C 232.324219 122.269531 232.285156 122.5 232.167969 122.722656 C 232.042969 123.023438 231.84375 123.296875 231.707031 123.59375 C 231.539062 123.878906 231.429688 124.1875 231.375 124.515625 C 231.375 125.601562 231.179688 126.683594 231.582031 127.710938 C 231.746094 128.105469 231.800781 128.519531 231.746094 128.945312 C 231.691406 129.371094 231.535156 129.757812 231.277344 130.101562 C 231.039062 130.515625 230.855469 130.953125 230.734375 131.414062 C 230.195312 132.910156 229.710938 134.417969 229.199219 135.914062 C 229.078125 136.296875 228.839844 136.585938 228.484375 136.777344 C 228.109375 136.988281 227.824219 137.289062 227.632812 137.675781 C 227.503906 137.945312 227.339844 138.199219 227.152344 138.429688 C 226.066406 139.660156 225.203125 140.058594 223.898438 139.421875 C 223.417969 139.175781 222.917969 138.980469 222.402344 138.828125 C 221.886719 138.683594 221.503906 138.378906 221.246094 137.910156 C 220.859375 137.304688 220.4375 136.726562 219.984375 136.167969 C 219.84375 135.976562 219.660156 135.835938 219.441406 135.746094 C 218.625 135.449219 217.785156 135.226562 216.929688 135.085938 C 216.640625 135.078125 216.382812 134.988281 216.148438 134.816406 C 215.917969 134.644531 215.757812 134.421875 215.664062 134.148438 C 215.613281 134.003906 215.523438 133.875 215.476562 133.734375 C 215.335938 133.3125 215.058594 133.015625 214.652344 132.839844 C 214.253906 132.632812 213.871094 132.398438 213.507812 132.140625 C 212.898438 131.707031 212.320312 131.230469 211.710938 130.800781 C 211.394531 130.582031 210.992188 130.476562 210.699219 130.230469 C 210.390625 129.941406 210.105469 129.632812 209.847656 129.296875 L 209.257812 129.933594 C 208.601562 129.785156 208.367188 129.265625 208.140625 128.800781 C 207.820312 128.066406 207.296875 127.523438 206.578125 127.171875 C 205.976562 126.886719 205.925781 126.410156 206.382812 125.941406 C 206.925781 125.355469 207.257812 124.671875 207.378906 123.882812 C 207.539062 123.238281 207.597656 122.589844 207.558594 121.929688 C 207.523438 121.789062 207.515625 121.644531 207.539062 121.503906 C 207.5625 121.359375 207.613281 121.226562 207.691406 121.105469 C 207.769531 120.984375 207.871094 120.882812 207.992188 120.800781 C 208.113281 120.722656 208.246094 120.667969 208.386719 120.644531 C 208.488281 120.609375 208.582031 120.5625 208.671875 120.507812 C 208.65625 120.351562 208.671875 120.199219 208.71875 120.046875 C 208.765625 119.894531 208.839844 119.761719 208.941406 119.640625 C 209.042969 119.519531 209.164062 119.425781 209.308594 119.355469 C 209.449219 119.285156 209.597656 119.242188 209.753906 119.234375 C 209.941406 119.21875 210.121094 119.171875 210.292969 119.089844 C 210.464844 119.007812 210.613281 118.902344 210.746094 118.765625 C 210.875 118.628906 210.976562 118.476562 211.050781 118.300781 C 211.125 118.128906 211.167969 117.949219 211.175781 117.757812 C 211.175781 117.605469 211.246094 117.464844 211.273438 117.320312 C 211.359375 116.617188 211.632812 115.996094 212.09375 115.460938 C 212.15625 115.367188 212.207031 115.265625 212.246094 115.15625 C 211.464844 114.902344 211.304688 114.945312 210.789062 115.4375 C 210.277344 115.929688 209.941406 116.386719 209.222656 116.257812 C 208.734375 115.898438 208.980469 115.074219 208.246094 114.972656 C 208.324219 114.429688 208.714844 114.246094 209.066406 114.023438 C 209.851562 113.535156 210.628906 113.023438 211.398438 112.515625 C 211.535156 112.445312 211.632812 112.335938 211.691406 112.191406 C 211.75 112.046875 211.753906 111.902344 211.703125 111.757812 C 211.363281 111.894531 211.035156 112.0625 210.726562 112.261719 C 209.949219 112.820312 209.210938 113.429688 208.519531 114.09375 C 207.890625 114.757812 207.128906 115.179688 206.234375 115.367188 C 205.558594 115.523438 205.066406 115.503906 204.636719 114.984375 C 204.472656 114.777344 204.269531 114.628906 204.023438 114.539062 C 203.777344 114.449219 203.527344 114.425781 203.269531 114.472656 C 203 114.488281 202.734375 114.523438 202.46875 114.570312 C 201.984375 114.683594 201.523438 114.617188 201.089844 114.375 C 200.515625 114.125 199.902344 113.972656 199.3125 113.757812 C 198.882812 113.625 198.480469 113.445312 198.097656 113.214844 C 197.808594 112.984375 197.484375 112.867188 197.113281 112.867188 C 196.660156 112.910156 196.285156 112.757812 195.992188 112.40625 C 195.550781 111.875 195.039062 111.421875 194.464844 111.039062 C 193.726562 110.542969 193.476562 110.496094 192.671875 111.160156 C 192.789062 111.523438 193.128906 111.621094 193.425781 111.703125 C 193.777344 111.816406 194.078125 112.003906 194.335938 112.261719 C 194.59375 112.523438 194.773438 112.832031 194.878906 113.183594 C 194.972656 113.351562 195.023438 113.53125 195.035156 113.71875 C 195.042969 113.910156 195.015625 114.09375 194.941406 114.273438 C 194.871094 114.449219 194.765625 114.601562 194.621094 114.730469 C 194.480469 114.859375 194.320312 114.953125 194.136719 115.007812 C 193.652344 115.171875 193.15625 115.246094 192.644531 115.238281 C 191.957031 115.1875 191.273438 115.238281 190.597656 115.390625 C 190.332031 115.472656 190.070312 115.472656 189.804688 115.390625 C 188.898438 115.019531 188.113281 115.390625 187.289062 115.714844 C 187.269531 116.054688 187.15625 116.363281 186.945312 116.628906 C 186.734375 116.898438 186.464844 117.085938 186.140625 117.183594 C 185.988281 117.234375 185.878906 117.328125 185.804688 117.464844 C 185.539062 118.144531 185.082031 118.648438 184.4375 118.984375 C 184.605469 119.132812 184.714844 119.230469 184.828125 119.320312 C 185.527344 119.917969 185.570312 120.832031 184.5625 121.347656 C 184.289062 121.484375 184.019531 121.59375 183.742188 121.722656 C 183.003906 122.085938 182.949219 122.222656 183.039062 123.0625 C 183.15625 123.800781 183.199219 124.542969 183.171875 125.292969 C 183.050781 125.84375 183.050781 126.398438 183.171875 126.949219 C 183.324219 127.410156 183.140625 127.667969 182.679688 127.699219 C 181.90625 127.792969 181.132812 127.808594 180.359375 127.746094 C 179.558594 127.621094 178.757812 127.621094 177.957031 127.746094 C 177.710938 127.8125 177.480469 127.785156 177.257812 127.667969 C 177.03125 127.550781 176.878906 127.375 176.796875 127.136719 C 176.558594 126.558594 176.164062 126.121094 175.609375 125.832031 C 175.375 125.695312 175.160156 125.535156 174.957031 125.355469 C 173.925781 124.53125 172.90625 123.695312 171.867188 122.890625 C 171.375 122.507812 171.28125 122.535156 170.734375 123.023438 C 170.738281 123.109375 170.75 123.195312 170.765625 123.28125 C 170.988281 124.292969 170.765625 124.53125 169.730469 124.308594 C 169.1875 124.183594 168.988281 124.273438 168.742188 124.792969 C 168.167969 125.929688 168.167969 125.929688 167.003906 125.886719 C 166.839844 125.863281 166.683594 125.871094 166.523438 125.914062 C 166.367188 125.957031 166.226562 126.03125 166.101562 126.132812 C 165.976562 126.238281 165.875 126.363281 165.804688 126.507812 C 165.734375 126.65625 165.695312 126.808594 165.691406 126.972656 C 165.667969 127.554688 165.410156 127.996094 164.914062 128.300781 C 164.746094 128.402344 164.535156 128.539062 164.476562 128.714844 C 164.363281 128.980469 164.1875 129.203125 163.949219 129.371094 C 163.714844 129.539062 163.449219 129.632812 163.15625 129.652344 C 162.734375 129.675781 162.347656 129.800781 161.992188 130.03125 C 162.191406 130.363281 162.386719 130.652344 162.535156 130.964844 C 162.789062 131.402344 163.007812 131.859375 163.191406 132.328125 C 163.347656 132.738281 163.359375 133.148438 163.226562 133.5625 C 163.097656 133.980469 162.851562 134.308594 162.492188 134.554688 C 161.597656 135.183594 160.984375 135.191406 160.105469 134.589844 C 159.941406 134.460938 159.769531 134.34375 159.589844 134.234375 C 159.425781 134.121094 159.246094 134.066406 159.046875 134.066406 C 158.851562 134.066406 158.667969 134.121094 158.503906 134.234375 C 159.015625 134.835938 159.546875 135.4375 160.050781 136.0625 C 160.304688 136.363281 160.371094 136.703125 160.25 137.082031 C 160.144531 137.488281 160.0625 137.894531 159.964844 138.300781 C 159.867188 138.707031 159.664062 138.914062 159.199219 138.84375 C 158.996094 138.8125 158.816406 138.730469 158.65625 138.605469 C 157.996094 137.925781 157.183594 137.371094 156.835938 136.433594 C 156.722656 136.066406 156.550781 135.726562 156.320312 135.414062 C 155.507812 136.371094 155.0625 137.042969 154.910156 137.753906 C 154.734375 138.460938 154.40625 139.09375 153.929688 139.644531 C 153.78125 139.824219 153.640625 140.015625 153.445312 140.261719 L 154.144531 140.84375 C 154.40625 141.023438 154.585938 141.265625 154.679688 141.570312 C 154.773438 141.875 154.761719 142.171875 154.648438 142.46875 C 154.511719 142.851562 154.269531 143.144531 153.921875 143.355469 C 153.164062 143.828125 152.601562 144.472656 152.226562 145.285156 C 151.863281 146.203125 151.507812 147.125 151.140625 148.035156 C 151.015625 148.335938 150.84375 148.617188 150.636719 148.871094 C 149.242188 150.527344 147.15625 150.859375 145.289062 151.617188 C 145.261719 151.621094 145.230469 151.621094 145.203125 151.617188 C 144.308594 151.6875 143.414062 151.78125 142.492188 151.8125 C 142.070312 151.796875 141.738281 151.957031 141.488281 152.296875 C 141.347656 152.484375 141.210938 152.679688 141.078125 152.882812 C 140.96875 153.074219 140.816406 153.21875 140.617188 153.320312 C 140.417969 153.417969 140.210938 153.453125 139.992188 153.425781 C 139.59375 153.363281 139.210938 153.421875 138.851562 153.601562 C 138.488281 153.777344 138.210938 154.046875 138.019531 154.402344 C 137.203125 155.550781 136.175781 156.074219 134.765625 155.679688 C 134.5 155.601562 134.234375 155.601562 133.972656 155.679688 C 133.707031 155.761719 133.484375 155.902344 133.304688 156.113281 C 132.207031 157.097656 131.21875 158.183594 130.34375 159.367188 C 129.851562 160.097656 129.242188 160.707031 128.511719 161.199219 C 127.375 161.9375 126.496094 162.910156 125.871094 164.113281 C 125.699219 164.535156 125.386719 164.78125 124.933594 164.851562 C 124.191406 164.515625 124.609375 163.710938 124.261719 163.105469 C 123.855469 163.988281 123.652344 164.914062 123.652344 165.886719 C 123.65625 166.132812 123.734375 166.351562 123.886719 166.546875 C 124.289062 167.089844 124.394531 167.6875 124.199219 168.335938 C 124.027344 169.1875 123.863281 170.046875 123.734375 170.902344 C 123.671875 171.226562 123.691406 171.546875 123.789062 171.863281 C 124.023438 172.480469 124.308594 173.078125 124.640625 173.652344 C 125.660156 175.382812 126.71875 177.082031 127.730469 178.8125 C 128.039062 179.21875 128.121094 179.664062 127.980469 180.152344 C 127.601562 180.417969 127.324219 180.238281 127.0625 180.015625 C 126.804688 179.796875 126.542969 179.507812 126.28125 179.261719 Z M 126.28125 179.261719 " fill-opacity="1" fill-rule="nonzero"/></g><g clip-path="url(#3775dfc93a)"><path fill="#f9f9f9" d="M 243 249.082031 C 242.410156 248.808594 242.15625 247.9375 241.28125 248.261719 C 241.253906 248.457031 241.210938 248.648438 241.15625 248.835938 C 241.054688 249.214844 240.914062 249.574219 240.734375 249.921875 C 240.652344 250.09375 240.539062 250.242188 240.390625 250.363281 C 240.246094 250.484375 240.082031 250.570312 239.898438 250.625 C 239.714844 250.675781 239.527344 250.6875 239.339844 250.660156 C 239.152344 250.632812 238.976562 250.566406 238.816406 250.464844 C 238.660156 250.382812 238.511719 250.285156 238.355469 250.191406 C 238.152344 250.253906 237.945312 250.304688 237.738281 250.34375 C 237.582031 250.375 237.425781 250.378906 237.273438 250.351562 C 237.117188 250.324219 236.972656 250.265625 236.835938 250.183594 C 236.703125 250.101562 236.589844 249.996094 236.496094 249.867188 C 236.402344 249.742188 236.335938 249.601562 236.292969 249.449219 C 236.132812 248.917969 235.835938 248.480469 235.40625 248.132812 C 235.105469 247.882812 234.828125 247.609375 234.582031 247.308594 C 234.4375 247.167969 234.332031 247.007812 234.261719 246.820312 C 234.1875 246.636719 234.15625 246.445312 234.167969 246.246094 C 234.175781 246.046875 234.226562 245.859375 234.316406 245.683594 C 234.40625 245.507812 234.527344 245.355469 234.683594 245.230469 C 234.980469 244.933594 235.3125 244.6875 235.621094 244.417969 C 234.964844 243.171875 234.324219 242.058594 233.792969 240.898438 C 233.5 240.210938 233.28125 239.496094 233.144531 238.761719 C 233.023438 238.21875 233.246094 237.933594 233.765625 237.71875 C 233.96875 237.628906 234.175781 237.574219 234.394531 237.554688 C 234.613281 237.535156 234.828125 237.554688 235.042969 237.609375 C 235.253906 237.664062 235.453125 237.75 235.632812 237.875 C 235.816406 237.996094 235.972656 238.144531 236.105469 238.324219 C 236.40625 238.714844 236.800781 238.941406 237.292969 239.011719 C 237.847656 239.136719 238.382812 239.328125 238.890625 239.585938 C 239.164062 239.75 239.457031 239.828125 239.777344 239.820312 C 240.09375 239.8125 240.386719 239.722656 240.648438 239.542969 C 241.03125 239.363281 241.433594 239.292969 241.851562 239.332031 C 242.355469 239.390625 242.785156 239.242188 243.144531 238.886719 C 243.605469 238.476562 244.09375 238.097656 244.605469 237.753906 C 244.773438 237.800781 244.914062 237.894531 245.023438 238.03125 C 245.132812 238.167969 245.195312 238.320312 245.207031 238.496094 C 245.34375 239.777344 245.664062 241.023438 245.550781 242.335938 C 245.519531 243.101562 245.269531 243.792969 244.800781 244.402344 C 244.632812 244.613281 244.492188 244.839844 244.332031 245.0625 C 244.03125 245.398438 243.9375 245.785156 244.046875 246.222656 C 244.101562 246.523438 244.042969 246.800781 243.863281 247.046875 C 243.636719 247.339844 243.527344 247.671875 243.535156 248.039062 C 243.554688 248.25 243.515625 248.449219 243.417969 248.636719 C 243.324219 248.828125 243.183594 248.972656 243 249.082031 Z M 243 249.082031 " fill-opacity="1" fill-rule="nonzero"/></g><g clip-path="url(#485ea00527)"><path fill="#f9f9f9" d="M 242.832031 248.105469 C 243.050781 247.628906 243.246094 247.238281 243.410156 246.832031 C 243.519531 246.625 243.566406 246.40625 243.542969 246.175781 C 243.417969 245.640625 243.535156 245.164062 243.890625 244.75 C 244.109375 244.429688 244.335938 244.109375 244.5625 243.792969 C 244.8125 243.410156 244.953125 242.992188 244.988281 242.535156 C 245.066406 241.363281 244.984375 240.203125 244.738281 239.054688 C 244.683594 238.898438 244.613281 238.75 244.527344 238.609375 C 244.085938 238.914062 243.675781 239.152344 243.304688 239.449219 C 243.007812 239.726562 242.65625 239.863281 242.25 239.863281 C 241.625 239.742188 241.058594 239.867188 240.539062 240.230469 C 240.40625 240.3125 240.261719 240.335938 240.113281 240.300781 C 239.570312 240.214844 239.054688 240.128906 238.539062 239.992188 C 238.164062 239.894531 237.824219 239.671875 237.453125 239.589844 C 236.722656 239.46875 236.109375 239.128906 235.617188 238.578125 C 235.074219 237.964844 234.414062 237.976562 233.6875 238.464844 C 233.6875 238.625 233.710938 238.804688 233.738281 239.003906 C 234 240.675781 235.0625 242 235.746094 243.484375 C 236.179688 244.421875 236.289062 244.457031 235.546875 245.144531 C 234.5625 246.054688 234.296875 246.308594 235.484375 247.535156 L 235.550781 247.601562 C 236.179688 248.054688 236.601562 248.652344 236.820312 249.394531 C 236.847656 249.5 236.898438 249.589844 236.96875 249.671875 C 237.039062 249.75 237.121094 249.8125 237.222656 249.851562 C 237.320312 249.894531 237.421875 249.910156 237.527344 249.90625 C 237.636719 249.898438 237.734375 249.871094 237.828125 249.820312 C 238.246094 249.621094 238.636719 249.667969 239 249.949219 C 239.613281 250.3125 239.988281 250.214844 240.332031 249.589844 C 240.492188 249.269531 240.601562 248.933594 240.664062 248.582031 C 240.839844 247.742188 241.277344 247.460938 242.078125 247.753906 C 242.339844 247.855469 242.589844 247.972656 242.832031 248.105469 Z M 242.832031 248.105469 " fill-opacity="1" fill-rule="nonzero"/></g><path fill="#f9f9f9" d="M 189.019531 113.34375 C 188.054688 112.851562 186.945312 112.671875 186.148438 111.902344 C 185.929688 111.648438 185.820312 111.355469 185.820312 111.019531 C 185.792969 110.726562 185.90625 110.503906 186.160156 110.355469 C 186.410156 110.203125 186.660156 110.210938 186.902344 110.375 C 187.101562 110.453125 187.261719 110.578125 187.386719 110.753906 C 187.664062 111.242188 188.082031 111.226562 188.550781 111.191406 C 189.058594 111.140625 189.566406 111.152344 190.070312 111.226562 C 190.882812 111.371094 191.003906 111.765625 190.445312 112.390625 C 190.222656 112.636719 189.980469 112.855469 189.710938 113.050781 C 189.492188 113.175781 189.261719 113.273438 189.019531 113.34375 Z M 189.019531 113.34375 " fill-opacity="1" fill-rule="nonzero"/><path fill="#f9f9f9" d="M 186.449219 110.648438 C 186.367188 111.453125 186.449219 111.621094 186.953125 111.875 C 187.457031 112.128906 187.878906 112.277344 188.335938 112.5 C 189.214844 112.917969 189.59375 112.765625 190.03125 111.710938 C 189.414062 111.710938 188.828125 111.679688 188.242188 111.710938 C 187.757812 111.761719 187.371094 111.59375 187.078125 111.203125 C 186.886719 110.996094 186.675781 110.8125 186.449219 110.648438 Z M 186.449219 110.648438 " fill-opacity="1" fill-rule="nonzero"/><path fill="#f9f9f9" d="M 209.878906 214.320312 C 210.675781 214.429688 211.332031 214.480469 211.96875 214.621094 C 212.242188 214.671875 212.476562 214.796875 212.675781 214.996094 C 212.875 215.195312 213 215.429688 213.050781 215.703125 C 213.191406 216.289062 212.933594 216.648438 212.335938 216.625 C 212.121094 216.632812 211.925781 216.574219 211.75 216.453125 C 211.519531 216.253906 211.257812 216.125 210.960938 216.066406 C 210.660156 216.007812 210.367188 216.027344 210.082031 216.128906 C 209.660156 216.21875 209.300781 216.109375 208.996094 215.808594 C 208.453125 215.335938 208.507812 214.773438 209.167969 214.480469 C 209.398438 214.398438 209.636719 214.34375 209.878906 214.320312 Z M 209.878906 214.320312 " fill-opacity="1" fill-rule="nonzero"/><path fill="#f9f9f9" d="M 209.234375 215.15625 C 209.285156 215.339844 209.398438 215.472656 209.570312 215.554688 C 209.742188 215.636719 209.914062 215.644531 210.089844 215.570312 C 210.414062 215.476562 210.738281 215.460938 211.066406 215.53125 C 211.394531 215.597656 211.6875 215.738281 211.945312 215.953125 C 212.070312 216.050781 212.296875 216.011719 212.488281 216.039062 C 212.503906 215.925781 212.496094 215.816406 212.464844 215.707031 C 212.433594 215.597656 212.378906 215.5 212.304688 215.410156 C 212.234375 215.324219 212.144531 215.253906 212.042969 215.207031 C 211.941406 215.15625 211.832031 215.128906 211.71875 215.125 C 211.175781 215.03125 210.59375 214.96875 210.039062 214.894531 C 209.75 214.863281 209.441406 214.863281 209.234375 215.15625 Z M 209.234375 215.15625 " fill-opacity="1" fill-rule="nonzero"/><path fill="#f9f9f9" d="M 212.765625 123.828125 C 212.1875 124.195312 211.554688 124.375 210.867188 124.371094 C 209.988281 124.320312 209.675781 123.652344 210.179688 122.9375 C 210.390625 122.644531 210.644531 122.394531 210.9375 122.183594 C 211.183594 121.960938 211.460938 121.898438 211.777344 122.003906 C 212.09375 122.105469 212.28125 122.320312 212.347656 122.644531 C 212.488281 123.003906 212.632812 123.367188 212.765625 123.828125 Z M 212.765625 123.828125 " fill-opacity="1" fill-rule="nonzero"/><path fill="#f9f9f9" d="M 212.121094 123.644531 L 211.640625 122.429688 C 211.039062 122.625 210.65625 123.03125 210.492188 123.644531 C 211.050781 124.054688 211.511719 123.707031 212.121094 123.644531 Z M 212.121094 123.644531 " fill-opacity="1" fill-rule="nonzero"/><path fill="#f9f9f9" d="M 186.496094 113.894531 C 186.355469 114.027344 186.191406 114.109375 185.996094 114.140625 C 185.804688 114.171875 185.621094 114.144531 185.445312 114.0625 C 185.082031 113.929688 184.746094 113.746094 184.4375 113.519531 C 184.296875 113.390625 184.214844 113.238281 184.183594 113.050781 C 184.15625 112.867188 184.1875 112.695312 184.277344 112.53125 C 184.472656 112.21875 184.773438 112.253906 185.078125 112.292969 C 186.105469 112.445312 186.496094 112.863281 186.496094 113.894531 Z M 186.496094 113.894531 " fill-opacity="1" fill-rule="nonzero"/><path fill="#f9f9f9" d="M 184.648438 112.847656 C 184.785156 113.089844 184.972656 113.28125 185.214844 113.417969 C 185.457031 113.554688 185.71875 113.617188 186 113.605469 C 185.792969 112.917969 185.316406 112.917969 184.648438 112.847656 Z M 184.648438 112.847656 " fill-opacity="1" fill-rule="nonzero"/></svg>